<svg xmlns="http://www.w3.org/2000/svg" viewBox="0 0 100 100" preserveAspectRatio="xMidYMid" style="shape-rendering: auto; display: block; background: rgb(255, 255, 255);" width="201" height="201" xmlns:xlink="http://www.w3.org/1999/xlink"><g><g transform="rotate(0 50 50)">
  <rect fill="#01d8c3" height="12" width="6" ry="6" rx="3" y="18" x="47">
    <animate repeatCount="indefinite" begin="-0.7703081232492998s" dur="0.8403361344537815s" keyTimes="0;1" values="1;0" attributeName="opacity"></animate>
  </rect>
</g><g transform="rotate(30 50 50)">
  <rect fill="#01d8c3" height="12" width="6" ry="6" rx="3" y="18" x="47">
    <animate repeatCount="indefinite" begin="-0.700280112044818s" dur="0.8403361344537815s" keyTimes="0;1" values="1;0" attributeName="opacity"></animate>
  </rect>
</g><g transform="rotate(60 50 50)">
  <rect fill="#01d8c3" height="12" width="6" ry="6" rx="3" y="18" x="47">
    <animate repeatCount="indefinite" begin="-0.6302521008403361s" dur="0.8403361344537815s" keyTimes="0;1" values="1;0" attributeName="opacity"></animate>
  </rect>
</g><g transform="rotate(90 50 50)">
  <rect fill="#01d8c3" height="12" width="6" ry="6" rx="3" y="18" x="47">
    <animate repeatCount="indefinite" begin="-0.5602240896358543s" dur="0.8403361344537815s" keyTimes="0;1" values="1;0" attributeName="opacity"></animate>
  </rect>
</g><g transform="rotate(120 50 50)">
  <rect fill="#01d8c3" height="12" width="6" ry="6" rx="3" y="18" x="47">
    <animate repeatCount="indefinite" begin="-0.4901960784313726s" dur="0.8403361344537815s" keyTimes="0;1" values="1;0" attributeName="opacity"></animate>
  </rect>
</g><g transform="rotate(150 50 50)">
  <rect fill="#01d8c3" height="12" width="6" ry="6" rx="3" y="18" x="47">
    <animate repeatCount="indefinite" begin="-0.42016806722689076s" dur="0.8403361344537815s" keyTimes="0;1" values="1;0" attributeName="opacity"></animate>
  </rect>
</g><g transform="rotate(180 50 50)">
  <rect fill="#01d8c3" height="12" width="6" ry="6" rx="3" y="18" x="47">
    <animate repeatCount="indefinite" begin="-0.350140056022409s" dur="0.8403361344537815s" keyTimes="0;1" values="1;0" attributeName="opacity"></animate>
  </rect>
</g><g transform="rotate(210 50 50)">
  <rect fill="#01d8c3" height="12" width="6" ry="6" rx="3" y="18" x="47">
    <animate repeatCount="indefinite" begin="-0.2801120448179272s" dur="0.8403361344537815s" keyTimes="0;1" values="1;0" attributeName="opacity"></animate>
  </rect>
</g><g transform="rotate(240 50 50)">
  <rect fill="#01d8c3" height="12" width="6" ry="6" rx="3" y="18" x="47">
    <animate repeatCount="indefinite" begin="-0.21008403361344538s" dur="0.8403361344537815s" keyTimes="0;1" values="1;0" attributeName="opacity"></animate>
  </rect>
</g><g transform="rotate(270 50 50)">
  <rect fill="#01d8c3" height="12" width="6" ry="6" rx="3" y="18" x="47">
    <animate repeatCount="indefinite" begin="-0.1400560224089636s" dur="0.8403361344537815s" keyTimes="0;1" values="1;0" attributeName="opacity"></animate>
  </rect>
</g><g transform="rotate(300 50 50)">
  <rect fill="#01d8c3" height="12" width="6" ry="6" rx="3" y="18" x="47">
    <animate repeatCount="indefinite" begin="-0.0700280112044818s" dur="0.8403361344537815s" keyTimes="0;1" values="1;0" attributeName="opacity"></animate>
  </rect>
</g><g transform="rotate(330 50 50)">
  <rect fill="#01d8c3" height="12" width="6" ry="6" rx="3" y="18" x="47">
    <animate repeatCount="indefinite" begin="0s" dur="0.8403361344537815s" keyTimes="0;1" values="1;0" attributeName="opacity"></animate>
  </rect>
</g><g></g></g><!-- [ldio] generated by https://loading.io --></svg>